<svg viewBox="104.533 61.569 186.949 186.949" width="186.949" height="186.949"> <path fill-rule="evenodd" clip-rule="evenodd" d="M 170.316 113.564 L 170.316 118.599 L 193.325 118.599 L 193.325 113.564 L 170.316 113.564 Z M 165.643 108.891 L 165.643 113.564 L 165.643 118.599 C 165.643 121.179 167.737 123.272 170.316 123.272 L 171.737 123.272 L 168.049 169.117 L 133.024 139.307 L 134.029 138.303 C 135.853 136.48 135.853 133.516 134.029 131.694 L 130.468 128.133 L 127.164 124.829 L 123.86 128.133 L 107.59 144.407 L 104.286 147.711 L 107.59 151.015 L 111.147 154.572 C 112.975 156.4 115.933 156.4 117.761 154.572 L 118.765 153.567 L 148.527 188.541 L 102.725 192.284 L 102.725 190.863 C 102.725 188.279 100.636 186.19 98.052 186.19 L 93.017 186.19 L 88.344 186.19 L 88.344 190.863 L 88.344 213.872 L 88.344 218.545 L 93.017 218.545 L 98.052 218.545 C 100.636 218.545 102.725 216.452 102.725 213.872 L 102.725 212.446 L 148.457 216.185 L 118.765 251.164 L 117.761 250.159 C 115.933 248.332 112.975 248.332 111.147 250.159 L 107.59 253.721 L 104.286 257.025 L 107.59 260.329 L 123.86 276.599 L 127.164 279.903 L 130.468 276.599 L 134.029 273.037 C 135.853 271.214 135.853 268.256 134.029 266.428 L 133.024 265.423 L 168.003 235.731 L 171.737 281.459 L 170.316 281.459 C 167.737 281.459 165.643 283.553 165.643 286.133 L 165.643 291.166 L 165.643 295.84 L 170.316 295.84 L 193.325 295.84 L 197.998 295.84 L 197.998 291.166 L 197.998 286.133 C 197.998 283.553 195.905 281.459 193.325 281.459 L 191.905 281.459 L 195.644 235.731 L 230.622 265.423 L 229.612 266.428 C 227.789 268.256 227.789 271.214 229.612 273.037 L 233.174 276.599 L 236.478 279.903 L 239.782 276.599 L 256.052 260.329 L 259.356 257.025 L 256.052 253.715 L 252.495 250.159 C 250.667 248.332 247.709 248.332 245.885 250.159 L 244.876 251.164 L 215.142 216.134 L 260.912 212.446 L 260.912 213.872 C 260.912 216.452 263.006 218.545 265.586 218.545 L 270.619 218.545 L 275.293 218.545 L 275.293 213.872 L 275.293 190.863 L 275.293 186.19 L 270.619 186.19 L 265.586 186.19 C 263.006 186.19 260.912 188.279 260.912 190.863 L 260.912 192.284 L 215.072 188.592 L 244.876 153.567 L 245.881 154.572 C 247.709 156.4 250.667 156.4 252.495 154.572 L 256.052 151.015 L 259.356 147.711 L 256.052 144.407 L 239.782 128.133 L 236.478 124.829 L 233.174 128.133 L 229.612 131.694 C 227.789 133.522 227.789 136.48 229.612 138.303 L 230.622 139.312 L 195.592 169.117 L 191.905 123.272 L 193.325 123.272 C 195.905 123.272 197.998 121.179 197.998 118.599 L 197.998 113.564 L 197.998 108.891 L 193.325 108.891 L 170.316 108.891 L 165.643 108.891 Z M 122.079 150.253 L 129.706 142.626 L 167.587 174.86 L 167.554 175.254 C 169.25 174.431 171.031 173.748 172.878 173.224 L 172.438 172.851 L 176.43 123.272 L 187.212 123.272 L 191.203 172.851 L 190.763 173.224 C 192.611 173.748 194.391 174.431 196.087 175.254 L 196.055 174.86 L 233.935 142.626 L 241.562 150.253 L 209.744 187.643 C 210.791 189.354 211.683 191.168 212.408 193.069 L 260.912 196.972 L 260.912 207.759 L 213.819 211.549 C 213.273 214.111 212.431 216.559 211.324 218.859 L 241.562 254.482 L 233.935 262.105 L 199.069 232.511 C 196.56 234.067 193.82 235.302 190.918 236.137 L 187.212 281.459 L 176.43 281.459 L 172.724 236.137 C 169.821 235.296 167.082 234.067 164.573 232.511 L 129.706 262.109 L 122.079 254.482 L 152.317 218.859 C 151.219 216.578 150.383 214.147 149.836 211.61 L 102.725 207.759 L 102.725 196.972 L 151.257 193.008 C 151.977 191.13 152.865 189.335 153.898 187.643 L 122.079 150.253 Z M 130.725 134.998 L 129.455 136.27 L 126.402 139.322 L 118.775 146.945 L 115.727 149.996 L 114.456 151.268 L 110.895 147.711 L 127.164 131.442 L 130.725 134.998 Z M 247.915 254.739 L 244.866 257.786 L 237.239 265.413 L 234.197 268.456 L 232.921 269.732 L 236.478 273.293 L 252.746 257.025 L 249.191 253.463 L 247.915 254.739 Z M 234.192 136.27 L 237.239 139.322 L 244.866 146.949 L 247.915 149.996 L 249.191 151.268 L 252.746 147.711 L 236.478 131.442 L 232.916 134.998 L 234.192 136.27 Z M 114.451 253.463 L 115.727 254.739 L 118.775 257.786 L 126.402 265.413 L 129.449 268.456 L 130.725 269.732 L 127.164 273.293 L 110.895 257.025 L 114.451 253.463 Z M 98.052 192.668 L 98.052 196.972 L 98.052 207.759 L 98.052 212.068 L 98.052 213.872 L 93.017 213.872 L 93.017 190.863 L 98.052 190.863 L 98.052 192.668 Z M 172.121 286.133 L 170.316 286.133 L 170.316 291.166 L 193.325 291.166 L 193.325 286.133 L 191.521 286.133 L 187.212 286.133 L 176.43 286.133 L 172.121 286.133 Z M 265.586 190.863 L 270.619 190.863 L 270.619 213.872 L 265.586 213.872 L 265.586 190.863 Z" fill="black" style="" transform="matrix(1, 0, 0, 1, 16.188974, -47.321911)"></path> <path stroke="#000000" stroke-linecap="round" stroke-linejoin="round" stroke-width="2" d="M 163.856 208.414 L 185.502 180.291 L 185.502 198.186 L 198.489 198.186 L 176.843 226.31 L 176.843 208.414 L 163.856 208.414 Z" style="" transform="matrix(1, 0, 0, 1, 16.188974, -47.321911)"></path> </svg>
